<svg xmlns="http://www.w3.org/2000/svg" xmlns:xlink="http://www.w3.org/1999/xlink" viewBox="0,0,256,256" width="48px" height="48px" fill-rule="nonzero"><g fill="#bdbdbd" fill-rule="nonzero" stroke="none" stroke-width="1" stroke-linecap="butt" stroke-linejoin="miter" stroke-miterlimit="10" stroke-dasharray="" stroke-dashoffset="0" font-family="none" font-weight="none" font-size="none" text-anchor="none" style="mix-blend-mode: normal"><g transform="scale(5.33333,5.33333)"><path d="M24,3c-11.58641,0 -21,9.41359 -21,21c0,10.51869 7.75132,19.25021 17.85938,20.76758c0.28812,0.04321 0.58077,-0.04136 0.80142,-0.23162c0.22065,-0.19025 0.34737,-0.46727 0.34702,-0.75862l-0.00977,-14.51953c-0.00006,-0.55226 -0.44774,-0.99994 -1,-1h-3.94727v-3.25781h3.94922c0.5515,-0.00005 0.99887,-0.44655 1,-0.99805l0.00977,-3.45312c0,-0.00065 0,-0.0013 0,-0.00195c0,-2.73359 0.65439,-4.52536 1.73242,-5.64648c1.07803,-1.12112 2.67136,-1.6875 4.90234,-1.6875c1.7629,0 2.43781,0.10519 3.10156,0.18555v2.65039h-2.28125c-1.33754,0 -2.44411,0.75007 -3.01367,1.74414c-0.56956,0.99407 -0.74414,2.17598 -0.74414,3.37695l-0.00977,2.82617c-0.00101,0.26588 0.10389,0.52123 0.29154,0.7096c0.18764,0.18838 0.44258,0.29428 0.70846,0.2943h4.82422l-0.50391,3.25781h-4.32031c-0.55226,0.00006 -0.99994,0.44774 -1,1l0.00781,10.5625c-0.00474,0.36063 0.18507,0.69588 0.49674,0.87737c0.31167,0.18149 0.69692,0.18112 1.00823,-0.00098c0.31131,-0.1821 0.50047,-0.51772 0.49503,-0.87834l-0.00781,-9.56055h4.17578c0.49343,-0.00007 0.91307,-0.35999 0.98828,-0.84766l0.81445,-5.25781c0.04442,-0.2884 -0.03933,-0.58181 -0.22929,-0.80331c-0.18996,-0.2215 -0.46719,-0.34898 -0.75899,-0.34903h-4.98633l0.00586,-1.82617c0,-0.0013 0,-0.0026 0,-0.00391c0,-0.98303 0.18228,-1.86238 0.48047,-2.38281c0.29819,-0.52043 0.57188,-0.73828 1.27734,-0.73828h3.28125c0.55226,-0.00006 0.99994,-0.44774 1,-1v-4.58789c0.00061,-0.50069 -0.36912,-0.92467 -0.86523,-0.99219c-0.57129,-0.07723 -1.88216,-0.25586 -4.23633,-0.25586c-2.58301,0 -4.80728,0.7029 -6.34375,2.30078c-1.53646,1.59788 -2.29102,3.9748 -2.29102,7.0332l-0.00781,2.45313h-3.95117c-0.55226,0.00006 -0.99994,0.44774 -1,1v5.25781c0.00006,0.55226 0.44774,0.99994 1,1h3.94922l0.00781,12.25c-8.56334,-1.84299 -15.00781,-9.38293 -15.00781,-18.50781c0,-10.50559 8.49441,-19 19,-19c10.50559,0 19,8.49441 19,19c0,9.63248 -7.15013,17.57319 -16.42773,18.82813c-0.35421,0.0477 -0.65606,0.28078 -0.79179,0.61142c-0.13573,0.33064 -0.08472,0.70857 0.13381,0.99139c0.21853,0.28282 0.57137,0.42754 0.92555,0.37962c10.25439,-1.38706 18.16016,-10.18702 18.16016,-20.81055c0,-11.58641 -9.41359,-21 -21,-21z"></path></g></g></svg>